<?xml version="1.0" encoding="UTF-8" standalone="no"?>
<svg width="31px" height="31px" viewBox="0 0 31 31" version="1.1" xmlns="http://www.w3.org/2000/svg" xmlns:xlink="http://www.w3.org/1999/xlink">
    <!-- Generator: Sketch 40 (33762) - http://www.bohemiancoding.com/sketch -->
    <title>advertising</title>
    <desc>Created with Sketch.</desc>
    <defs></defs>
    <g id="Page-1" stroke="none" stroke-width="1" fill="none" fill-rule="evenodd">
        <g id="advertising" transform="translate(-2.000000, -3.000000)" fill="#FFFFFF">
            <path d="M17.2986748,3 L17.8858308,3 C19.2341216,3.06523988 20.5388996,3.29357602 21.8002039,3.68501529 C23.0832548,4.07645456 24.2684281,4.6092389 25.3557594,5.2833843 C26.4213441,5.93578308 27.4108007,6.72952302 28.324159,7.66462793 C29.2157707,8.62147947 29.9768912,9.64355556 30.6075433,10.7308869 C31.2381955,11.8399648 31.7274872,13.0360113 32.0754332,14.3190622 C32.4233792,15.6238597 32.5973496,16.950384 32.5973496,18.2986748 C32.5973496,19.6687123 32.4233792,20.9952365 32.0754332,22.2782875 C31.7274872,23.583085 31.2381955,24.7791315 30.6075433,25.8664628 C29.9768912,26.9755407 29.2157707,27.9976168 28.324159,28.9327217 C27.4108007,29.8678266 26.4213441,30.6724397 25.3557594,31.3465851 C24.2684281,32.0207305 23.094128,32.5535149 21.8328236,32.9449541 C20.5497727,33.3363934 19.2341216,33.5538564 17.8858308,33.5973496 C17.755351,33.6190963 17.5596343,33.6299694 17.2986748,33.6299694 C17.0377153,33.6299694 16.8419986,33.6190963 16.7115189,33.5973496 C15.3632281,33.5538564 14.0584501,33.3363934 12.7971458,32.9449541 C11.5140948,32.5535149 10.3289215,32.0207305 9.24159021,31.3465851 C8.17600555,30.6724397 7.18654891,29.8678266 6.27319062,28.9327217 C5.38157896,27.9976168 4.62045847,26.9755407 3.98980632,25.8664628 C3.35915417,24.7791315 2.86986243,23.583085 2.52191641,22.2782875 C2.1739704,20.9952365 2,19.6687123 2,18.2986748 C2,16.950384 2.1739704,15.6238597 2.52191641,14.3190622 C2.86986243,13.0360113 3.35915417,11.8399648 3.98980632,10.7308869 C4.62045847,9.64355556 5.38157896,8.62147947 6.27319062,7.66462793 C7.18654891,6.72952302 8.17600555,5.93578308 9.24159021,5.2833843 C10.3289215,4.6092389 11.5032217,4.07645456 12.764526,3.68501529 C14.0475769,3.29357602 15.3632281,3.06523988 16.7115189,3 L17.2986748,3 L17.2986748,3 Z M10.3832824,19.7013252 L4.83792049,19.7013252 C5.14237325,22.2891737 6.14270304,24.561662 7.83893986,26.5188583 C9.53517668,28.4760546 11.6336946,29.7808326 14.1345566,30.4332314 C13.177705,28.9979541 12.3513456,27.3778548 11.6554536,25.5728848 C10.9595616,23.7679149 10.5355087,21.8107479 10.3832824,19.7013252 L10.3832824,19.7013252 Z M21.4087666,19.7013252 L13.1885831,19.7013252 C13.253823,20.6364301 13.3951739,21.5606478 13.6126402,22.4740061 C13.851853,23.409111 14.1128086,24.2354704 14.3955148,24.9531091 C14.6782209,25.6707477 15.0044154,26.3775025 15.3741081,27.0733945 C15.7438007,27.7692865 16.0808683,28.3346903 16.3853211,28.7696228 C16.6680272,29.226302 16.9724754,29.661228 17.2986748,30.0744139 C17.6248742,29.661228 17.9293224,29.226302 18.2120285,28.7696228 C18.5164813,28.3129437 18.853549,27.7366667 19.2232416,27.0407747 C19.5929342,26.3448827 19.9191287,25.6490011 20.2018349,24.9531091 C20.484541,24.2354704 20.7346234,23.409111 20.9520897,22.4740061 C21.1913026,21.5606478 21.3435267,20.6364301 21.4087666,19.7013252 L21.4087666,19.7013252 Z M14.1345566,6.19673802 C11.6336946,6.8491368 9.53517668,8.15391478 7.83893986,10.1111111 C6.14270304,12.0683074 5.14237325,14.3407958 4.83792049,16.9286442 L10.3832824,16.9286442 C10.6442419,13.1447313 11.8946541,9.56746504 14.1345566,6.19673802 L14.1345566,6.19673802 Z M29.7594292,19.7013252 L24.2140673,19.7013252 C23.9531078,23.4852381 22.7026955,27.0625044 20.4627931,30.4332314 C22.963655,29.7808326 25.062173,28.4760546 26.7584098,26.5188583 C28.4546466,24.561662 29.4549764,22.2891737 29.7594292,19.7013252 L29.7594292,19.7013252 Z M17.2986748,6.55555556 C16.9724754,6.96874145 16.6680272,7.39279429 16.3853211,7.82772681 C16.0808683,8.28440595 15.7438007,8.8606829 15.3741081,9.55657492 C15.0044154,10.252467 14.6782209,10.9592217 14.3955148,11.6768603 C14.1128086,12.394499 13.851853,13.2099852 13.6126402,14.1233435 C13.3951739,15.0584484 13.253823,15.9935393 13.1885831,16.9286442 L21.4087666,16.9286442 C21.3435267,15.9935393 21.1913026,15.0584484 20.9520897,14.1233435 C20.7346234,13.2099852 20.484541,12.394499 20.2018349,11.6768603 C19.9191287,10.9592217 19.5929342,10.252467 19.2232416,9.55657492 C18.853549,8.8606829 18.5164813,8.28440595 18.2120285,7.82772681 C17.9293224,7.39279429 17.6248742,6.96874145 17.2986748,6.55555556 L17.2986748,6.55555556 Z M20.4627931,6.19673802 C22.7026955,9.54571841 23.9531078,13.1229847 24.2140673,16.9286442 L29.7594292,16.9286442 C29.4549764,14.3407958 28.4546466,12.0683074 26.7584098,10.1111111 C25.062173,8.15391478 22.963655,6.8491368 20.4627931,6.19673802 L20.4627931,6.19673802 Z"></path>
        </g>
    </g>
</svg>