<?xml version="1.0" encoding="UTF-8" standalone="no"?>
<svg width="31px" height="31px" viewBox="0 0 31 31" version="1.1" xmlns="http://www.w3.org/2000/svg" xmlns:xlink="http://www.w3.org/1999/xlink">
    <!-- Generator: Sketch 40 (33762) - http://www.bohemiancoding.com/sketch -->
    <title>consultation</title>
    <desc>Created with Sketch.</desc>
    <defs></defs>
    <g id="Page-1" stroke="none" stroke-width="1" fill="none" fill-rule="evenodd">
        <g id="consultation" transform="translate(-2.000000, -3.000000)" fill="#FFFFFF">
            <path d="M6.17533129,3 L28.4220183,3 C29.5745895,3 30.5640462,3.41317969 31.3904179,4.23955148 C32.1950431,5.04417664 32.5973496,6.02276012 32.5973496,7.17533129 L32.5973496,22.4740061 C32.5973496,23.6265773 32.1950431,24.6160339 31.3904179,25.4424057 C30.5640462,26.2470309 29.5745895,26.6493374 28.4220183,26.6493374 L17.2986748,26.6493374 L7.54536188,33.6299694 L7.54536188,26.6493374 L6.17533129,26.6493374 C5.02276012,26.6493374 4.03330349,26.2470309 3.2069317,25.4424057 C2.40230654,24.6160339 2,23.6265773 2,22.4740061 L2,7.17533129 C2,6.02276012 2.40230654,5.04417664 3.2069317,4.23955148 C4.03330349,3.41317969 5.02276012,3 6.17533129,3 L6.17533129,3 Z M28.4220183,5.77268094 L6.17533129,5.77268094 C5.78389203,5.77268094 5.44682438,5.91403189 5.16411825,6.19673802 C4.90315874,6.45769753 4.77268094,6.78389203 4.77268094,7.17533129 L4.77268094,22.4740061 C4.77268094,22.8654454 4.90315874,23.202513 5.16411825,23.4852192 C5.44682438,23.7461787 5.78389203,23.8766565 6.17533129,23.8766565 L10.3506626,23.8766565 L10.3506626,28.2150866 L16.4179409,23.8766565 L28.4220183,23.8766565 C28.8134576,23.8766565 29.1396521,23.7461787 29.4006116,23.4852192 C29.6833178,23.202513 29.8246687,22.8654454 29.8246687,22.4740061 L29.8246687,7.17533129 C29.8246687,6.78389203 29.6833178,6.45769753 29.4006116,6.19673802 C29.1396521,5.91403189 28.8134576,5.77268094 28.4220183,5.77268094 L28.4220183,5.77268094 Z"></path>
        </g>
    </g>
</svg>