<?xml version="1.0" encoding="UTF-8" standalone="no"?>
<svg width="27px" height="32px" viewBox="0 0 27 32" version="1.1" xmlns="http://www.w3.org/2000/svg" xmlns:xlink="http://www.w3.org/1999/xlink">
    <!-- Generator: Sketch 40 (33762) - http://www.bohemiancoding.com/sketch -->
    <title>content</title>
    <desc>Created with Sketch.</desc>
    <defs></defs>
    <g id="Page-1" stroke="none" stroke-width="1" fill="none" fill-rule="evenodd">
        <g id="content" transform="translate(-5.000000, -2.000000)" fill="#FFFFFF">
            <path d="M9,2 L27.6875,2 C28.7916722,2 29.7291628,2.39582937 30.5,3.1875 C31.2916706,3.95833719 31.6875,4.89582781 31.6875,6 L31.6875,30 C31.6875,31.1041722 31.2916706,32.0520794 30.5,32.84375 C29.7291628,33.6145872 28.7916722,34 27.6875,34 L9,34 C7.89582781,34 6.95833719,33.6145872 6.1875,32.84375 C5.39582937,32.0520794 5,31.1041722 5,30 L5,6 C5,4.89582781 5.39582937,3.95833719 6.1875,3.1875 C6.95833719,2.39582937 7.89582781,2 9,2 L9,2 Z M13,24.6875 L23.6875,24.6875 C24.0416684,24.6875 24.3541653,24.8124987 24.625,25.0625 C24.8750013,25.3333347 25,25.6458316 25,26 C25,26.3750019 24.8750013,26.6979153 24.625,26.96875 C24.3541653,27.2187513 24.0416684,27.34375 23.6875,27.34375 L13,27.34375 C12.6458316,27.34375 12.3333347,27.2187513 12.0625,26.96875 C11.8124987,26.6979153 11.6875,26.3750019 11.6875,26 C11.6875,25.6458316 11.8124987,25.3333347 12.0625,25.0625 C12.3333347,24.8124987 12.6458316,24.6875 13,24.6875 L13,24.6875 Z M13,19.34375 L23.6875,19.34375 C24.0416684,19.34375 24.3541653,19.4791653 24.625,19.75 C24.8750013,20.0000013 25,20.3124981 25,20.6875 C25,21.0416684 24.8750013,21.3541653 24.625,21.625 C24.3541653,21.8750013 24.0416684,22 23.6875,22 L13,22 C12.6458316,22 12.3333347,21.8750013 12.0625,21.625 C11.8124987,21.3541653 11.6875,21.0416684 11.6875,20.6875 C11.6875,20.3124981 11.8124987,20.0000013 12.0625,19.75 C12.3333347,19.4791653 12.6458316,19.34375 13,19.34375 L13,19.34375 Z M27.6875,4.6875 L9,4.6875 C8.64583156,4.6875 8.33333469,4.81249875 8.0625,5.0625 C7.81249875,5.33333469 7.6875,5.64583156 7.6875,6 L7.6875,30 C7.6875,30.3750019 7.81249875,30.6979153 8.0625,30.96875 C8.33333469,31.2187513 8.64583156,31.34375 9,31.34375 L27.6875,31.34375 C28.0416684,31.34375 28.3541653,31.2187513 28.625,30.96875 C28.8750013,30.6979153 29,30.3750019 29,30 L29,6 C29,5.64583156 28.8750013,5.33333469 28.625,5.0625 C28.3541653,4.81249875 28.0416684,4.6875 27.6875,4.6875 L27.6875,4.6875 Z M13,14 L23.6875,14 C24.0416684,14 24.3541653,14.1354153 24.625,14.40625 C24.8750013,14.6562513 25,14.9687481 25,15.34375 C25,15.7187519 24.8750013,16.0312487 24.625,16.28125 C24.3541653,16.5520847 24.0416684,16.6875 23.6875,16.6875 L13,16.6875 C12.6458316,16.6875 12.3333347,16.5520847 12.0625,16.28125 C11.8124987,16.0312487 11.6875,15.7187519 11.6875,15.34375 C11.6875,14.9687481 11.8124987,14.6562513 12.0625,14.40625 C12.3333347,14.1354153 12.6458316,14 13,14 L13,14 Z M13,8.6875 L18.34375,8.6875 C18.7187519,8.6875 19.0312487,8.81249875 19.28125,9.0625 C19.5520847,9.33333469 19.6875,9.64583156 19.6875,10 C19.6875,10.3750019 19.5520847,10.6979153 19.28125,10.96875 C19.0312487,11.2187513 18.7187519,11.34375 18.34375,11.34375 L13,11.34375 C12.6458316,11.34375 12.3333347,11.2187513 12.0625,10.96875 C11.8124987,10.6979153 11.6875,10.3750019 11.6875,10 C11.6875,9.64583156 11.8124987,9.33333469 12.0625,9.0625 C12.3333347,8.81249875 12.6458316,8.6875 13,8.6875 L13,8.6875 Z"></path>
        </g>
    </g>
</svg>