<?xml version="1.0" encoding="UTF-8" standalone="no"?>
<svg width="31px" height="28px" viewBox="0 0 31 28" version="1.1" xmlns="http://www.w3.org/2000/svg" xmlns:xlink="http://www.w3.org/1999/xlink">
    <!-- Generator: Sketch 40 (33762) - http://www.bohemiancoding.com/sketch -->
    <title>design</title>
    <desc>Created with Sketch.</desc>
    <defs></defs>
    <g id="Page-1" stroke="none" stroke-width="1" fill="none" fill-rule="evenodd">
        <g id="design" transform="translate(-3.000000, -4.000000)" fill="#FFFFFF">
            <path d="M7.17533129,4 L29.4220183,4 C30.5745895,4 31.5640462,4.40230654 32.3904179,5.2069317 C33.1950431,6.03330349 33.5973496,7.02276012 33.5973496,8.17533129 L33.5973496,22.0713558 C33.5973496,23.2239269 33.1950431,24.2133836 32.3904179,25.0397554 C31.5640462,25.8443805 30.5745895,26.2466871 29.4220183,26.2466871 L19.7013252,26.2466871 L19.7013252,29.0519878 L23.8766565,29.0519878 C24.2463491,29.0519878 24.5725436,29.1824656 24.8552497,29.4434251 C25.1162093,29.7261312 25.2466871,30.0523257 25.2466871,30.4220183 C25.2466871,30.8134576 25.1162093,31.1505253 24.8552497,31.4332314 C24.5725436,31.6941909 24.2463491,31.8246687 23.8766565,31.8246687 L12.7206932,31.8246687 C12.3510005,31.8246687 12.024806,31.6941909 11.7420999,31.4332314 C11.4811404,31.1505253 11.3506626,30.8134576 11.3506626,30.4220183 C11.3506626,30.0523257 11.4811404,29.7261312 11.7420999,29.4434251 C12.024806,29.1824656 12.3510005,29.0519878 12.7206932,29.0519878 L16.8960245,29.0519878 L16.8960245,26.2466871 L7.17533129,26.2466871 C6.02276012,26.2466871 5.03330349,25.8443805 4.2069317,25.0397554 C3.40230654,24.2133836 3,23.2239269 3,22.0713558 L3,8.17533129 C3,7.02276012 3.40230654,6.03330349 4.2069317,5.2069317 C5.03330349,4.40230654 6.02276012,4 7.17533129,4 L7.17533129,4 Z M29.4220183,6.77268094 L7.17533129,6.77268094 C6.78389203,6.77268094 6.44682438,6.91403189 6.16411825,7.19673802 C5.90315874,7.45769753 5.77268094,7.78389203 5.77268094,8.17533129 L5.77268094,22.0713558 C5.77268094,22.462795 5.90315874,22.7998627 6.16411825,23.0825688 C6.44682438,23.3435283 6.78389203,23.4740061 7.17533129,23.4740061 L29.4220183,23.4740061 C29.8134576,23.4740061 30.1396521,23.3435283 30.4006116,23.0825688 C30.6833178,22.7998627 30.8246687,22.462795 30.8246687,22.0713558 L30.8246687,8.17533129 C30.8246687,7.78389203 30.6941909,7.45769753 30.4332314,7.19673802 C30.1505253,6.91403189 29.8134576,6.77268094 29.4220183,6.77268094 L29.4220183,6.77268094 Z"></path>
        </g>
    </g>
</svg>