<?xml version="1.0" encoding="UTF-8" standalone="no"?>
<svg width="31px" height="34px" viewBox="0 0 31 34" version="1.1" xmlns="http://www.w3.org/2000/svg" xmlns:xlink="http://www.w3.org/1999/xlink">
    <!-- Generator: Sketch 40 (33762) - http://www.bohemiancoding.com/sketch -->
    <title>implementation</title>
    <desc>Created with Sketch.</desc>
    <defs></defs>
    <g id="Page-1" stroke="none" stroke-width="1" fill="none" fill-rule="evenodd">
        <g id="implementation" transform="translate(-2.000000, -1.000000)" fill="#FFFFFF">
            <path d="M25.6493374,1 C26.0407767,1 26.3669712,1.14135095 26.6279307,1.42405708 L32.2059123,7.00203874 C32.4668718,7.26299825 32.5973496,7.58919274 32.5973496,7.98063201 C32.5973496,8.37207127 32.4668718,8.69826577 32.2059123,8.95922528 L26.6279307,14.5372069 C26.3669712,14.7981664 26.0407767,14.9286442 25.6493374,14.9286442 C25.2578981,14.9286442 24.9317036,14.7981664 24.6707441,14.5372069 C24.388038,14.2545008 24.2466871,13.9174331 24.2466871,13.5259939 C24.2466871,13.1563012 24.388038,12.8301067 24.6707441,12.5474006 L27.8674822,9.35066259 L25.6493374,9.35066259 C24.3445399,9.35066259 23.1158739,9.64423764 21.9633028,10.2313965 C20.8324782,10.7968088 19.875641,11.5688024 19.0927625,12.5474006 C17.8966981,14.0696644 17.2986748,15.7876221 17.2986748,17.7013252 C17.2986748,19.6367749 16.8311294,21.4417178 15.8960245,23.116208 C15.4175987,24.0078196 14.8195755,24.8015596 14.1019368,25.4974516 C13.0798454,26.5630362 11.8837989,27.3893956 10.5137615,27.9765545 C9.14372404,28.5637134 7.69759511,28.8572885 6.17533129,28.8572885 L3.37003058,28.8572885 C3.00033794,28.8572885 2.67414345,28.7159375 2.39143731,28.4332314 C2.1304778,28.1722719 2,27.8460774 2,27.4546381 C2,27.0631989 2.1304778,26.7370044 2.39143731,26.4760449 C2.67414345,26.1933387 3.00033794,26.0519878 3.37003058,26.0519878 L6.17533129,26.0519878 C7.48012885,26.0519878 8.69792163,25.7692859 9.82874618,25.2038736 C10.9813173,24.6384613 11.9490277,23.8664677 12.7319062,22.8878695 C13.9279706,21.3656057 14.5259939,19.6367749 14.5259939,17.7013252 C14.5259939,15.7658755 14.9826662,13.9718057 15.8960245,12.3190622 C16.3961969,11.4274505 16.9942201,10.6337106 17.6901121,9.93781855 C18.7339502,8.87223388 19.9408698,8.0458745 21.3109072,7.4587156 C22.6809447,6.8715567 24.1270736,6.57798165 25.6493374,6.57798165 L27.8674822,6.57798165 L24.6707441,3.38124363 C24.388038,3.09853749 24.2466871,2.772343 24.2466871,2.40265036 C24.2466871,2.01121109 24.388038,1.6850166 24.6707441,1.42405708 C24.9317036,1.14135095 25.2578981,1 25.6493374,1 L25.6493374,1 Z M25.6493374,20.5066259 C26.0407767,20.5066259 26.3669712,20.6371037 26.6279307,20.8980632 L32.2059123,26.4760449 C32.4668718,26.7370044 32.5973496,27.0631989 32.5973496,27.4546381 C32.5973496,27.8460774 32.4668718,28.1722719 32.2059123,28.4332314 L26.6279307,34.011213 C26.3669712,34.2721726 26.0407767,34.4026504 25.6493374,34.4026504 C25.2578981,34.4026504 24.9317036,34.2721726 24.6707441,34.011213 C24.388038,33.7502535 24.2466871,33.424059 24.2466871,33.0326198 C24.2466871,32.6629271 24.388038,32.3367326 24.6707441,32.0540265 L27.8674822,28.8572885 L25.6493374,28.8572885 C24.1270736,28.8572885 22.6809447,28.5637134 21.3109072,27.9765545 C19.9408698,27.3893956 18.7339502,26.5630362 17.6901121,25.4974516 C18.2555244,24.6928264 18.7230698,23.8229744 19.0927625,22.8878695 C19.875641,23.8664677 20.8324782,24.6384613 21.9633028,25.2038736 C23.1158739,25.7692859 24.3445399,26.0519878 25.6493374,26.0519878 L27.8674822,26.0519878 L24.6707441,22.8878695 C24.388038,22.6051634 24.2466871,22.2680957 24.2466871,21.8766565 C24.2466871,21.5069638 24.388038,21.1807693 24.6707441,20.8980632 C24.9317036,20.6371037 25.2578981,20.5066259 25.6493374,20.5066259 L25.6493374,20.5066259 Z M3.37003058,6.57798165 L6.17533129,6.57798165 C7.69759511,6.57798165 9.14372404,6.8715567 10.5137615,7.4587156 C11.8837989,8.0458745 13.0798454,8.87223388 14.1019368,9.93781855 C13.5365245,10.7641903 13.0798522,11.6340423 12.7319062,12.5474006 C11.9490277,11.5688024 10.9813173,10.7968088 9.82874618,10.2313965 C8.69792163,9.64423764 7.48012885,9.35066259 6.17533129,9.35066259 L3.37003058,9.35066259 C3.00033794,9.35066259 2.67414345,9.22018479 2.39143731,8.95922528 C2.1304778,8.67651914 2,8.35032465 2,7.98063201 C2,7.58919274 2.1304778,7.2521251 2.39143731,6.96941896 C2.67414345,6.70845945 3.00033794,6.57798165 3.37003058,6.57798165 L3.37003058,6.57798165 Z"></path>
        </g>
    </g>
</svg>