<?xml version="1.0" encoding="UTF-8" standalone="no"?>
<svg width="32px" height="32px" viewBox="0 0 32 32" version="1.1" xmlns="http://www.w3.org/2000/svg" xmlns:xlink="http://www.w3.org/1999/xlink">
    <!-- Generator: Sketch 40 (33762) - http://www.bohemiancoding.com/sketch -->
    <title>strategy</title>
    <desc>Created with Sketch.</desc>
    <defs></defs>
    <g id="Page-1" stroke="none" stroke-width="1" fill="none" fill-rule="evenodd">
        <g id="strategy" transform="translate(-2.000000, -2.000000)" fill="#FFFFFF">
            <path d="M18,2 C19.1041722,2 20.0416628,2.39582937 20.8125,3.1875 C21.6041706,3.95833719 22,4.89582781 22,6 L22,6.6875 C22.333335,6.81250063 22.7291644,6.97916563 23.1875,7.1875 L23.65625,6.6875 C24.4479206,5.91666281 25.3958278,5.53125 26.5,5.53125 C27.5833387,5.53125 28.5208294,5.91666281 29.3125,6.6875 C30.1041706,7.47917063 30.5,8.42707781 30.5,9.53125 C30.5,10.6354222 30.1041706,11.5729128 29.3125,12.34375 L28.84375,12.84375 C29.0520844,13.3020856 29.2083328,13.6874984 29.3125,14 L30,14 C31.1041722,14 32.0416628,14.3958294 32.8125,15.1875 C33.6041706,15.9583372 34,16.8958278 34,18 C34,19.1041722 33.6145872,20.0520794 32.84375,20.84375 C32.0520794,21.6145872 31.1041722,22 30,22 L29.3125,22 C29.2083328,22.333335 29.0520844,22.7291644 28.84375,23.1875 L29.3125,23.65625 C30.1041706,24.4479206 30.5,25.3958278 30.5,26.5 C30.5,27.6041722 30.1041706,28.5416628 29.3125,29.3125 C28.5208294,30.1041706 27.5833387,30.5 26.5,30.5 C25.3958278,30.5 24.4479206,30.1041706 23.65625,29.3125 L23.1875,28.84375 C22.7291644,29.0520844 22.333335,29.2083328 22,29.3125 L22,30 C22,31.1041722 21.6145872,32.0520794 20.84375,32.84375 C20.0520794,33.6145872 19.1041722,34 18,34 C16.8958278,34 15.9583372,33.6145872 15.1875,32.84375 C14.3958294,32.0520794 14,31.1041722 14,30 L14,29.3125 C13.666665,29.2083328 13.2708356,29.0520844 12.8125,28.84375 L12.34375,29.3125 C11.5520794,30.1041706 10.6145887,30.5 9.53125,30.5 C8.42707781,30.5 7.47917063,30.1041706 6.6875,29.3125 C5.91666281,28.5416628 5.53125,27.6041722 5.53125,26.5 C5.53125,25.3958278 5.91666281,24.4479206 6.6875,23.65625 L7.15625,23.1875 C6.94791563,22.7291644 6.79166719,22.333335 6.6875,22 L6,22 C4.89582781,22 3.94792063,21.6145872 3.15625,20.84375 C2.38541281,20.0520794 2,19.1041722 2,18 C2,16.8958278 2.38541281,15.9583372 3.15625,15.1875 C3.94792063,14.3958294 4.89582781,14 6,14 L6.6875,14 C6.79166719,13.6874984 6.94791563,13.3020856 7.15625,12.84375 L6.6875,12.34375 C5.91666281,11.5729128 5.53125,10.6354222 5.53125,9.53125 C5.53125,8.42707781 5.91666281,7.47917063 6.6875,6.6875 C7.47917063,5.91666281 8.42707781,5.53125 9.53125,5.53125 C10.6145887,5.53125 11.5520794,5.91666281 12.34375,6.6875 L12.8125,7.1875 C13.2708356,6.97916563 13.666665,6.81250063 14,6.6875 L14,6 C14,4.89582781 14.3854128,3.95833719 15.15625,3.1875 C15.9479206,2.39582937 16.8958278,2 18,2 L18,2 Z M18,4.6875 C17.6249981,4.6875 17.3125013,4.81249875 17.0625,5.0625 C16.7916653,5.33333469 16.65625,5.64583156 16.65625,6 L16.65625,8.78125 C15.1145756,8.98958437 13.6979231,9.57291188 12.40625,10.53125 L10.46875,8.59375 C10.1979153,8.32291531 9.88541844,8.1875 9.53125,8.1875 C9.15624813,8.1875 8.84375125,8.31249875 8.59375,8.5625 C8.32291531,8.83333469 8.1875,9.15624812 8.1875,9.53125 C8.1875,9.90625187 8.31249875,10.2187487 8.5625,10.46875 L10.53125,12.40625 C9.57291187,13.6979231 8.97916781,15.1249922 8.75,16.6875 L6,16.6875 C5.62499812,16.6875 5.31250125,16.8124987 5.0625,17.0625 C4.79166531,17.3333347 4.65625,17.6458316 4.65625,18 C4.65625,18.3750019 4.79166531,18.6874987 5.0625,18.9375 C5.31250125,19.2083347 5.62499812,19.34375 6,19.34375 L8.75,19.34375 C8.97916781,20.9062578 9.57291187,22.3229103 10.53125,23.59375 L8.5625,25.5625 C8.31249875,25.8125013 8.1875,26.1249981 8.1875,26.5 C8.1875,26.8750019 8.32291531,27.1874987 8.59375,27.4375 C8.84375125,27.7083347 9.15624813,27.84375 9.53125,27.84375 C9.88541844,27.84375 10.1979153,27.7083347 10.46875,27.4375 L12.40625,25.5 C13.6979231,26.4375047 15.1145756,27.0208322 16.65625,27.25 L16.65625,30 C16.65625,30.3750019 16.7916653,30.6874987 17.0625,30.9375 C17.3125013,31.2083347 17.6249981,31.34375 18,31.34375 C18.3750019,31.34375 18.6874988,31.2083347 18.9375,30.9375 C19.2083347,30.6874987 19.34375,30.3750019 19.34375,30 L19.34375,27.25 C20.8854244,27.0208322 22.3020769,26.4375047 23.59375,25.5 L25.53125,27.4375 C25.8020847,27.7083347 26.1249981,27.84375 26.5,27.84375 C26.8541684,27.84375 27.1666653,27.7083347 27.4375,27.4375 C27.6875013,27.1874987 27.8125,26.8750019 27.8125,26.5 C27.8125,26.1249981 27.6875013,25.8125013 27.4375,25.5625 L25.46875,23.59375 C26.4270881,22.3229103 27.0208322,20.9062578 27.25,19.34375 L30,19.34375 C30.3750019,19.34375 30.6874987,19.2083347 30.9375,18.9375 C31.2083347,18.6874987 31.34375,18.3750019 31.34375,18 C31.34375,17.6458316 31.2083347,17.3333347 30.9375,17.0625 C30.6874987,16.8124987 30.3750019,16.6875 30,16.6875 L27.25,16.6875 C27.0208322,15.1249922 26.4270881,13.6979231 25.46875,12.40625 L27.4375,10.46875 C27.6875013,10.1979153 27.8125,9.88541844 27.8125,9.53125 C27.8125,9.15624812 27.6875013,8.83333469 27.4375,8.5625 C27.1666653,8.31249875 26.8541684,8.1875 26.5,8.1875 C26.1249981,8.1875 25.8020847,8.32291531 25.53125,8.59375 L23.59375,10.53125 C22.3020769,9.57291188 20.8854244,8.98958437 19.34375,8.78125 L19.34375,6 C19.34375,5.64583156 19.2083347,5.33333469 18.9375,5.0625 C18.6874988,4.81249875 18.3750019,4.6875 18,4.6875 L18,4.6875 Z M18,12.6875 C19.4791741,12.6875 20.7395781,13.2083281 21.78125,14.25 C22.8229219,15.2916719 23.34375,16.5416594 23.34375,18 C23.34375,19.4791741 22.8229219,20.7395781 21.78125,21.78125 C20.7395781,22.8229219 19.4791741,23.34375 18,23.34375 C16.5208259,23.34375 15.2604219,22.8229219 14.21875,21.78125 C13.1770781,20.7395781 12.65625,19.4791741 12.65625,18 C12.65625,16.5416594 13.1770781,15.2916719 14.21875,14.25 C15.2604219,13.2083281 16.5208259,12.6875 18,12.6875 L18,12.6875 Z M18,15.34375 C17.2708297,15.34375 16.6458359,15.6041641 16.125,16.125 C15.6041641,16.6458359 15.34375,17.2708297 15.34375,18 C15.34375,18.7500038 15.6041641,19.3854141 16.125,19.90625 C16.6458359,20.4270859 17.2708297,20.6875 18,20.6875 C18.7291703,20.6875 19.3541641,20.4270859 19.875,19.90625 C20.3958359,19.3854141 20.65625,18.7500038 20.65625,18 C20.65625,17.2708297 20.3958359,16.6458359 19.875,16.125 C19.3541641,15.6041641 18.7291703,15.34375 18,15.34375 L18,15.34375 Z"></path>
        </g>
    </g>
</svg>