<?xml version="1.0" encoding="UTF-8" standalone="no"?>
<svg width="46px" height="46px" viewBox="0 0 46 46" version="1.1" xmlns="http://www.w3.org/2000/svg" xmlns:xlink="http://www.w3.org/1999/xlink">
    <!-- Generator: Sketch 40 (33762) - http://www.bohemiancoding.com/sketch -->
    <title>analyze</title>
    <desc>Created with Sketch.</desc>
    <defs>
        <circle id="path-1" cx="23" cy="23" r="23"></circle>
        <mask id="mask-2" maskContentUnits="userSpaceOnUse" maskUnits="objectBoundingBox" x="0" y="0" width="46" height="46" fill="white">
            <use xlink:href="#path-1"></use>
        </mask>
    </defs>
    <g id="Page-1" stroke="none" stroke-width="1" fill="none" fill-rule="evenodd">
        <g id="analyze" transform="translate(-2.000000, -1.000000)">
            <g transform="translate(2.000000, 1.000000)">
                <path d="M23,8 C25.0469186,8 26.9871977,8.39445235 28.8208955,9.18336887 C30.6759155,9.97228539 32.2750466,11.0383728 33.6183369,12.3816631 C34.9616272,13.7249534 36.0277146,15.3240845 36.8166311,17.1791045 C37.6055477,19.0341244 38,20.9744035 38,23 C38,25.0469186 37.6055477,26.9978585 36.8166311,28.8528785 C36.0277146,30.7078984 34.9616272,32.3070295 33.6183369,33.6503198 C32.2750466,34.9722881 30.6865763,36.0383755 28.8528785,36.8486141 C26.9978585,37.6375306 25.0469186,38.0319829 23,38.0319829 C20.9530814,38.0319829 19.0128023,37.6375306 17.1791045,36.8486141 C15.3240845,36.0383755 13.7249534,34.9722881 12.3816631,33.6503198 C11.0383728,32.3070295 9.97228539,30.7078984 9.18336887,28.8528785 C8.39445235,26.9978585 8,25.0469186 8,23 C8,20.9744035 8.39445235,19.0341244 9.18336887,17.1791045 C9.97228539,15.3240845 11.0383728,13.7249534 12.3816631,12.3816631 C13.7249534,11.0383728 15.3134237,9.97228539 17.1471215,9.18336887 C19.0021415,8.39445235 20.9530814,8 23,8 L23,8 Z M21.6247335,24.3752665 L21.6247335,10.8144989 C20.1108666,10.9850755 18.6823095,11.4221713 17.3390192,12.1257996 C15.9957289,12.8294278 14.8336936,13.7142804 13.8528785,14.7803838 C12.8933854,15.8678093 12.1258025,17.1257924 11.5501066,18.554371 C10.9957328,19.9829496 10.7185501,21.4648111 10.7185501,23 C10.7185501,24.6631213 11.0383763,26.2622525 11.6780384,27.7974414 C12.3390225,29.3113082 13.2132142,30.6119349 14.3006397,31.6993603 C15.4093872,32.7867858 16.7206747,33.6609775 18.2345416,34.3219616 C19.7484084,34.9616237 21.3368787,35.2814499 23,35.2814499 C24.556511,35.2814499 26.0490334,35.0042672 27.4776119,34.4498934 C28.9061905,33.8741975 30.1535128,33.1066146 31.2196162,32.1471215 C32.2857196,31.1663064 33.1705722,30.0042711 33.8742004,28.6609808 C34.5991507,27.3176905 35.0469075,25.8891334 35.217484,24.3752665 L21.6247335,24.3752665 Z M24.3752665,10.8144989 L24.3752665,21.6567164 L35.217484,21.6567164 C35.0469075,20.2494599 34.6524551,18.9061898 34.0341151,17.6268657 C33.4157752,16.3688636 32.6375313,15.2707936 31.6993603,14.3326226 C30.7398673,13.3731295 29.6311364,12.5842248 28.3731343,11.9658849 C27.1151323,11.3475449 25.782523,10.9637534 24.3752665,10.8144989 L24.3752665,10.8144989 Z" fill="#00002D"></path>
                <use id="Oval-Copy-2" stroke="#00002D" mask="url(#mask-2)" stroke-width="6" xlink:href="#path-1"></use>
            </g>
        </g>
    </g>
</svg>