<?xml version="1.0" encoding="UTF-8" standalone="no"?>
<svg width="46px" height="46px" viewBox="0 0 46 46" version="1.1" xmlns="http://www.w3.org/2000/svg" xmlns:xlink="http://www.w3.org/1999/xlink">
    <!-- Generator: Sketch 40 (33762) - http://www.bohemiancoding.com/sketch -->
    <title>design</title>
    <desc>Created with Sketch.</desc>
    <defs>
        <circle id="path-1" cx="23" cy="23" r="23"></circle>
        <mask id="mask-2" maskContentUnits="userSpaceOnUse" maskUnits="objectBoundingBox" x="0" y="0" width="46" height="46" fill="white">
            <use xlink:href="#path-1"></use>
        </mask>
    </defs>
    <g id="Page-1" stroke="none" stroke-width="1" fill="none" fill-rule="evenodd">
        <g id="design" transform="translate(-1.000000, -1.000000)">
            <g transform="translate(1.000000, 1.000000)">
                <path d="M12.1753313,9 L34.4220183,9 C35.5745895,9 36.5640462,9.40230654 37.3904179,10.2069317 C38.1950431,11.0333035 38.5973496,12.0227601 38.5973496,13.1753313 L38.5973496,27.0713558 C38.5973496,28.2239269 38.1950431,29.2133836 37.3904179,30.0397554 C36.5640462,30.8443805 35.5745895,31.2466871 34.4220183,31.2466871 L24.7013252,31.2466871 L24.7013252,34.0519878 L28.8766565,34.0519878 C29.2463491,34.0519878 29.5725436,34.1824656 29.8552497,34.4434251 C30.1162093,34.7261312 30.2466871,35.0523257 30.2466871,35.4220183 C30.2466871,35.8134576 30.1162093,36.1505253 29.8552497,36.4332314 C29.5725436,36.6941909 29.2463491,36.8246687 28.8766565,36.8246687 L17.7206932,36.8246687 C17.3510005,36.8246687 17.024806,36.6941909 16.7420999,36.4332314 C16.4811404,36.1505253 16.3506626,35.8134576 16.3506626,35.4220183 C16.3506626,35.0523257 16.4811404,34.7261312 16.7420999,34.4434251 C17.024806,34.1824656 17.3510005,34.0519878 17.7206932,34.0519878 L21.8960245,34.0519878 L21.8960245,31.2466871 L12.1753313,31.2466871 C11.0227601,31.2466871 10.0333035,30.8443805 9.2069317,30.0397554 C8.40230654,29.2133836 8,28.2239269 8,27.0713558 L8,13.1753313 C8,12.0227601 8.40230654,11.0333035 9.2069317,10.2069317 C10.0333035,9.40230654 11.0227601,9 12.1753313,9 L12.1753313,9 Z M34.4220183,11.7726809 L12.1753313,11.7726809 C11.783892,11.7726809 11.4468244,11.9140319 11.1641182,12.196738 C10.9031587,12.4576975 10.7726809,12.783892 10.7726809,13.1753313 L10.7726809,27.0713558 C10.7726809,27.462795 10.9031587,27.7998627 11.1641182,28.0825688 C11.4468244,28.3435283 11.783892,28.4740061 12.1753313,28.4740061 L34.4220183,28.4740061 C34.8134576,28.4740061 35.1396521,28.3435283 35.4006116,28.0825688 C35.6833178,27.7998627 35.8246687,27.462795 35.8246687,27.0713558 L35.8246687,13.1753313 C35.8246687,12.783892 35.6941909,12.4576975 35.4332314,12.196738 C35.1505253,11.9140319 34.8134576,11.7726809 34.4220183,11.7726809 L34.4220183,11.7726809 Z" fill="#00002D"></path>
                <use id="Oval-Copy-2" stroke="#00002D" mask="url(#mask-2)" stroke-width="6" xlink:href="#path-1"></use>
            </g>
        </g>
    </g>
</svg>