<?xml version="1.0" encoding="UTF-8" standalone="no"?>
<svg width="46px" height="46px" viewBox="0 0 46 46" version="1.1" xmlns="http://www.w3.org/2000/svg" xmlns:xlink="http://www.w3.org/1999/xlink">
    <!-- Generator: Sketch 40 (33762) - http://www.bohemiancoding.com/sketch -->
    <title>develop</title>
    <desc>Created with Sketch.</desc>
    <defs>
        <circle id="path-1" cx="23" cy="23" r="23"></circle>
        <mask id="mask-2" maskContentUnits="userSpaceOnUse" maskUnits="objectBoundingBox" x="0" y="0" width="46" height="46" fill="white">
            <use xlink:href="#path-1"></use>
        </mask>
    </defs>
    <g id="Page-1" stroke="none" stroke-width="1" fill="none" fill-rule="evenodd">
        <g id="develop" transform="translate(-1.000000, -1.000000)">
            <g transform="translate(1.000000, 1.000000)">
                <path d="M11.8168264,9 L32.1533546,9 C33.206963,9 34.1114623,9.377703 34.8668797,10.1331203 C35.6024176,10.8686583 35.970181,11.763218 35.970181,12.8168264 L35.970181,33.1831736 C35.970181,34.236782 35.6024176,35.1313417 34.8668797,35.8668797 C34.1114623,36.622297 33.206963,37 32.1533546,37 L11.8168264,37 C10.763218,37 9.85871872,36.622297 9.10330138,35.8668797 C8.36776345,35.1313417 8,34.236782 8,33.1831736 L8,12.8168264 C8,11.763218 8.36776345,10.8686583 9.10330138,10.1331203 C9.85871872,9.377703 10.763218,9 11.8168264,9 L11.8168264,9 Z M16.886049,34.4355698 L16.886049,19.1682641 L10.5346113,19.1682641 L10.5346113,33.1831736 C10.5346113,33.5211235 10.6638255,33.81931 10.9222577,34.0777423 C11.1608106,34.3162951 11.4589971,34.4355698 11.8168264,34.4355698 L16.886049,34.4355698 Z M33.4355698,33.1831736 L33.4355698,19.1682641 L19.4504792,19.1682641 L19.4504792,34.4355698 L32.1533546,34.4355698 C32.5111839,34.4355698 32.81931,34.3162951 33.0777423,34.0777423 C33.3162951,33.81931 33.4355698,33.5211235 33.4355698,33.1831736 L33.4355698,33.1831736 Z M32.1533546,11.5346113 L11.8168264,11.5346113 C11.4589971,11.5346113 11.150871,11.6638255 10.8924388,11.9222577 C10.6538859,12.1608106 10.5346113,12.4589971 10.5346113,12.8168264 L10.5346113,16.6336528 L33.4355698,16.6336528 L33.4355698,12.8168264 C33.4355698,12.4589971 33.3063556,12.1608106 33.0479233,11.9222577 C32.8093705,11.6638255 32.5111839,11.5346113 32.1533546,11.5346113 L32.1533546,11.5346113 Z" fill="#00002D"></path>
                <use id="Oval-Copy-2" stroke="#00002D" mask="url(#mask-2)" stroke-width="6" xlink:href="#path-1"></use>
            </g>
        </g>
    </g>
</svg>