<?xml version="1.0" encoding="UTF-8" standalone="no"?>
<svg width="46px" height="46px" viewBox="0 0 46 46" version="1.1" xmlns="http://www.w3.org/2000/svg" xmlns:xlink="http://www.w3.org/1999/xlink">
    <!-- Generator: Sketch 40 (33762) - http://www.bohemiancoding.com/sketch -->
    <title>discovery</title>
    <desc>Created with Sketch.</desc>
    <defs>
        <circle id="path-1" cx="23" cy="23" r="23"></circle>
        <mask id="mask-2" maskContentUnits="userSpaceOnUse" maskUnits="objectBoundingBox" x="0" y="0" width="46" height="46" fill="white">
            <use xlink:href="#path-1"></use>
        </mask>
    </defs>
    <g id="Page-1" stroke="none" stroke-width="1" fill="none" fill-rule="evenodd">
        <g id="discovery" transform="translate(-1.000000, -1.000000)">
            <g transform="translate(1.000000, 1.000000)">
                <path d="M23,10 C24.4583406,10 25.8645766,10.2291644 27.21875,10.6875 C28.5937569,11.1250022 29.8020781,11.6979131 30.84375,12.40625 C31.8854219,13.0937534 32.8541622,13.8645791 33.75,14.71875 C34.6666713,15.5729209 35.4374969,16.4270791 36.0625,17.28125 C36.6875031,18.1354209 37.2291644,18.9166631 37.6875,19.625 C38.1458356,20.3333369 38.4791656,20.9062478 38.6875,21.34375 L39,22 C38.9583331,22.1041672 38.8958338,22.2499991 38.8125,22.4375 C38.7291662,22.6041675 38.5312516,22.9583306 38.21875,23.5 C37.9062484,24.0625028 37.5729184,24.6041641 37.21875,25.125 C36.8645816,25.6666694 36.4062528,26.2916631 35.84375,27 C35.2604137,27.7291703 34.6666697,28.3958303 34.0625,29 C33.4583303,29.6250031 32.7395875,30.2604134 31.90625,30.90625 C31.0520791,31.5312531 30.1875044,32.0624978 29.3125,32.5 C28.4374956,32.9375022 27.4479222,33.3020819 26.34375,33.59375 C25.2604113,33.8645847 24.1458391,34 23,34 C21.5416594,34 20.1354234,33.7812522 18.78125,33.34375 C17.4062431,32.9062478 16.1979219,32.3333369 15.15625,31.625 C14.1145781,30.9374966 13.1458378,30.1666709 12.25,29.3125 C11.3333287,28.4583291 10.5625031,27.6145875 9.9375,26.78125 C9.31249688,25.9270791 8.77083563,25.1458369 8.3125,24.4375 C7.85416437,23.7291631 7.52083437,23.1562522 7.3125,22.71875 L7,22.0625 C7.04166687,21.9583328 7.10416625,21.8229175 7.1875,21.65625 C7.27083375,21.4687491 7.46874844,21.1041694 7.78125,20.5625 C8.09375156,19.9999972 8.42708156,19.4583359 8.78125,18.9375 C9.13541844,18.3958306 9.59374719,17.7708369 10.15625,17.0625 C10.7395863,16.3333297 11.3333303,15.6562531 11.9375,15.03125 C12.5416697,14.4062469 13.2708291,13.7812531 14.125,13.15625 C14.9583375,12.5104134 15.8124956,11.9687522 16.6875,11.53125 C17.5625044,11.0729144 18.5520778,10.7083347 19.65625,10.4375 C20.7395887,10.1458319 21.8541609,10 23,10 L23,10 Z M23,12.6875 C22.0208284,12.6875 21.0625047,12.8124987 20.125,13.0625 C19.1874953,13.3125013 18.3437538,13.6458313 17.59375,14.0625 C16.8437463,14.4583353 16.1041703,14.9479137 15.375,15.53125 C14.6666631,16.1145863 14.0520859,16.6770806 13.53125,17.21875 C13.0104141,17.7812528 12.5000025,18.3854134 12,19.03125 C11.4999975,19.6770866 11.1041681,20.2291644 10.8125,20.6875 C10.5208319,21.1458356 10.2500013,21.6041644 10,22.0625 C10.2500013,22.5208356 10.5208319,22.9687478 10.8125,23.40625 C11.1041681,23.8645856 11.4999975,24.4166634 12,25.0625 C12.5000025,25.6875031 13.0104141,26.2812472 13.53125,26.84375 C14.0520859,27.3854194 14.6666631,27.9479137 15.375,28.53125 C16.1041703,29.0937528 16.8437463,29.5729147 17.59375,29.96875 C18.3437538,30.3854187 19.1874953,30.7187487 20.125,30.96875 C21.0625047,31.2187513 22.0208284,31.34375 23,31.34375 C23.9791716,31.34375 24.9374953,31.2187513 25.875,30.96875 C26.8125047,30.6979153 27.6562462,30.3645853 28.40625,29.96875 C29.1562537,29.5729147 29.8958297,29.0833362 30.625,28.5 C31.3333369,27.9374972 31.9479141,27.3750028 32.46875,26.8125 C32.9895859,26.2499972 33.4999975,25.6562531 34,25.03125 C34.5000025,24.3854134 34.8958319,23.8333356 35.1875,23.375 C35.4791681,22.9166644 35.7499988,22.4583356 36,22 C35.7499988,21.5624978 35.4791681,21.1145856 35.1875,20.65625 C34.8958319,20.1979144 34.5000025,19.6458366 34,19 C33.4999975,18.3541634 32.9895859,17.7604194 32.46875,17.21875 C31.9479141,16.6562472 31.3333369,16.0833362 30.625,15.5 C29.8958297,14.9374972 29.1562537,14.4583353 28.40625,14.0625 C27.6562462,13.6458313 26.8125047,13.3125013 25.875,13.0625 C24.9374953,12.8124987 23.9791716,12.6875 23,12.6875 L23,12.6875 Z M23,16.6875 C24.4791741,16.6875 25.7395781,17.2083281 26.78125,18.25 C27.8229219,19.2916719 28.34375,20.5416594 28.34375,22 C28.34375,23.4791741 27.8229219,24.7395781 26.78125,25.78125 C25.7395781,26.8229219 24.4791741,27.34375 23,27.34375 C21.5208259,27.34375 20.2604219,26.8229219 19.21875,25.78125 C18.1770781,24.7395781 17.65625,23.4791741 17.65625,22 C17.65625,20.5416594 18.1770781,19.2916719 19.21875,18.25 C20.2604219,17.2083281 21.5208259,16.6875 23,16.6875 L23,16.6875 Z M23,19.34375 C22.2708297,19.34375 21.6458359,19.6041641 21.125,20.125 C20.6041641,20.6458359 20.34375,21.2708297 20.34375,22 C20.34375,22.7500037 20.6041641,23.3854141 21.125,23.90625 C21.6458359,24.4270859 22.2708297,24.6875 23,24.6875 C23.7291703,24.6875 24.3541641,24.4270859 24.875,23.90625 C25.3958359,23.3854141 25.65625,22.7500037 25.65625,22 C25.65625,21.2708297 25.3958359,20.6458359 24.875,20.125 C24.3541641,19.6041641 23.7291703,19.34375 23,19.34375 L23,19.34375 Z" fill="#00002D"></path>
                <use id="Oval" stroke="#00002D" mask="url(#mask-2)" stroke-width="6" xlink:href="#path-1"></use>
            </g>
        </g>
    </g>
</svg>