<?xml version="1.0" encoding="UTF-8" standalone="no"?>
<svg width="46px" height="46px" viewBox="0 0 46 46" version="1.1" xmlns="http://www.w3.org/2000/svg" xmlns:xlink="http://www.w3.org/1999/xlink">
    <!-- Generator: Sketch 40 (33762) - http://www.bohemiancoding.com/sketch -->
    <title>improve</title>
    <desc>Created with Sketch.</desc>
    <defs>
        <circle id="path-1" cx="23" cy="23" r="23"></circle>
        <mask id="mask-2" maskContentUnits="userSpaceOnUse" maskUnits="objectBoundingBox" x="0" y="0" width="46" height="46" fill="white">
            <use xlink:href="#path-1"></use>
        </mask>
    </defs>
    <g id="Page-1" stroke="none" stroke-width="1" fill="none" fill-rule="evenodd">
        <g id="improve" transform="translate(-1.000000, -1.000000)">
            <g transform="translate(1.000000, 1.000000)">
                <path d="M22.3425076,9 C24.299704,9 26.1549352,9.37716239 27.9082569,10.1314985 C29.6819661,10.8858346 31.2110028,11.9051924 32.4954128,13.1896024 C33.7798229,14.4740125 34.7991807,16.0030492 35.5535168,17.7767584 C36.3078529,19.5504676 36.6850153,21.4056988 36.6850153,23.3425076 C36.6850153,25.299704 36.3078529,27.1651287 35.5535168,28.9388379 C34.7991807,30.7125471 33.7798229,32.2415838 32.4954128,33.5259939 C31.2110028,34.7900165 29.6921596,35.8093743 27.9388379,36.5840979 C26.1651287,37.3384339 24.299704,37.7155963 22.3425076,37.7155963 C20.3853113,37.7155963 18.5300801,37.3384339 16.7767584,36.5840979 C15.0030492,35.8093743 13.4740125,34.7900165 12.1896024,33.5259939 C10.9051924,32.2415838 9.88583456,30.7125471 9.13149847,28.9388379 C8.37716239,27.1651287 8,25.299704 8,23.3425076 C8,21.4056988 8.37716239,19.5504676 9.13149847,17.7767584 C9.88583456,16.0030492 10.9051924,14.4740125 12.1896024,13.1896024 C13.4740125,11.9051924 14.9928557,10.8858346 16.7461774,10.1314985 C18.5198865,9.37716239 20.3853113,9 22.3425076,9 L22.3425076,9 Z M22.3425076,11.5993884 C20.7522856,11.5993884 19.2334425,11.9153893 17.7859327,12.5474006 C16.3384229,13.1590245 15.0846128,13.9948979 14.0244648,15.0550459 C12.9847043,16.0948064 12.1488309,17.3384229 11.5168196,18.7859327 C10.9051957,20.2334425 10.5993884,21.7522856 10.5993884,23.3425076 C10.5993884,24.9327297 10.9051957,26.4617664 11.5168196,27.9296636 C12.1488309,29.3771734 12.9847043,30.6207899 14.0244648,31.6605505 C15.0846128,32.700311 16.3384229,33.5361844 17.7859327,34.1681957 C19.2334425,34.7798196 20.7522856,35.0856269 22.3425076,35.0856269 C23.9327297,35.0856269 25.4515728,34.7798196 26.8990826,34.1681957 C28.3465924,33.5361844 29.6004024,32.700311 30.6605505,31.6605505 C31.700311,30.6207899 32.5259908,29.3771734 33.1376147,27.9296636 C33.769626,26.4617664 34.0856269,24.9327297 34.0856269,23.3425076 C34.0856269,21.7522856 33.7798196,20.2334425 33.1681957,18.7859327 C32.5361844,17.3384229 31.700311,16.0948064 30.6605505,15.0550459 C29.6004024,13.9948979 28.3465924,13.1590245 26.8990826,12.5474006 C25.4515728,11.9153893 23.9327297,11.5993884 22.3425076,11.5993884 L22.3425076,11.5993884 Z M22.3425076,14.2293578 C23.5861428,14.2293578 24.7685979,14.4638101 25.8899083,14.9327217 C27.0112187,15.4220208 27.9796086,16.0744098 28.795107,16.8899083 C29.6106055,17.7054067 30.2629945,18.6737966 30.7522936,19.795107 C31.2415927,20.9368049 31.4862385,22.1192599 31.4862385,23.3425076 C31.4862385,24.5861428 31.2415927,25.7685979 30.7522936,26.8899083 C30.2629945,28.0316061 29.6106055,29.0101896 28.795107,29.8256881 C27.9796086,30.6411865 27.0112187,31.283382 25.8899083,31.7522936 C24.7685979,32.2415927 23.5861428,32.4862385 22.3425076,32.4862385 C21.0988725,32.4862385 19.9164174,32.2415927 18.795107,31.7522936 C17.6737966,31.283382 16.7054067,30.6411865 15.8899083,29.8256881 C15.0744098,29.0101896 14.4220208,28.0316061 13.9327217,26.8899083 C13.4434226,25.7685979 13.1987768,24.5861428 13.1987768,23.3425076 C13.1987768,22.1192599 13.4434226,20.9368049 13.9327217,19.795107 C14.4220208,18.6737966 15.0744098,17.7054067 15.8899083,16.8899083 C16.7054067,16.0744098 17.6737966,15.4220208 18.795107,14.9327217 C19.9164174,14.4638101 21.0988725,14.2293578 22.3425076,14.2293578 L22.3425076,14.2293578 Z M22.3425076,16.8287462 C21.4658468,16.8287462 20.6197798,17.002037 19.8042813,17.3486239 C19.0091703,17.6952107 18.316007,18.1641153 17.7247706,18.7553517 C17.1539217,19.3262006 16.6952107,20.0193639 16.3486239,20.8348624 C16.002037,21.6299734 15.8287462,22.4658468 15.8287462,23.3425076 C15.8287462,24.239556 16.002037,25.0856229 16.3486239,25.8807339 C16.6952107,26.6962324 17.1539217,27.3893957 17.7247706,27.9602446 C18.316007,28.551481 19.0091703,29.0203856 19.8042813,29.3669725 C20.6197798,29.7135593 21.4658468,29.8868502 22.3425076,29.8868502 C23.2191685,29.8868502 24.0652355,29.7135593 24.8807339,29.3669725 C25.675845,29.0203856 26.3690083,28.551481 26.9602446,27.9602446 C27.5310936,27.3893957 27.9898046,26.6962324 28.3363914,25.8807339 C28.6829783,25.0856229 28.8562691,24.239556 28.8562691,23.3425076 C28.8562691,22.4658468 28.6829783,21.6299734 28.3363914,20.8348624 C27.9898046,20.0193639 27.5310936,19.3262006 26.9602446,18.7553517 C26.3690083,18.1641153 25.675845,17.6952107 24.8807339,17.3486239 C24.0652355,17.002037 23.2191685,16.8287462 22.3425076,16.8287462 L22.3425076,16.8287462 Z M22.3425076,19.4281346 C23.4230431,19.4281346 24.3404651,19.8154905 25.0948012,20.5902141 C25.8695248,21.3445502 26.2568807,22.2619722 26.2568807,23.3425076 C26.2568807,24.4230431 25.8797183,25.3506587 25.1253823,26.1253823 C24.3506587,26.8797183 23.4230431,27.2568807 22.3425076,27.2568807 C21.2619722,27.2568807 20.3445502,26.8797183 19.5902141,26.1253823 C18.8154905,25.3506587 18.4281346,24.4230431 18.4281346,23.3425076 C18.4281346,22.2619722 18.8052969,21.3445502 19.559633,20.5902141 C20.3343566,19.8154905 21.2619722,19.4281346 22.3425076,19.4281346 L22.3425076,19.4281346 Z M22.3425076,22.058104 C21.9755333,22.058104 21.669726,22.1804269 21.4250765,22.4250765 C21.1600394,22.6901135 21.0275229,22.9959208 21.0275229,23.3425076 C21.0275229,23.709482 21.1600394,24.0254829 21.4250765,24.2905199 C21.669726,24.5351694 21.9755333,24.6574924 22.3425076,24.6574924 C22.709482,24.6574924 23.0152893,24.5351694 23.2599388,24.2905199 C23.5249758,24.0254829 23.6574924,23.709482 23.6574924,23.3425076 C23.6574924,22.9959208 23.5249758,22.6901135 23.2599388,22.4250765 C23.0152893,22.1804269 22.709482,22.058104 22.3425076,22.058104 L22.3425076,22.058104 Z" fill="#00002D"></path>
                <use id="Oval-Copy-3" stroke="#00002D" mask="url(#mask-2)" stroke-width="6" xlink:href="#path-1"></use>
            </g>
        </g>
    </g>
</svg>