<?xml version="1.0" encoding="UTF-8" standalone="no"?>
<svg width="46px" height="46px" viewBox="0 0 46 46" version="1.1" xmlns="http://www.w3.org/2000/svg" xmlns:xlink="http://www.w3.org/1999/xlink">
    <!-- Generator: Sketch 40 (33762) - http://www.bohemiancoding.com/sketch -->
    <title>strategy</title>
    <desc>Created with Sketch.</desc>
    <defs>
        <circle id="path-1" cx="23" cy="23" r="23"></circle>
        <mask id="mask-2" maskContentUnits="userSpaceOnUse" maskUnits="objectBoundingBox" x="0" y="0" width="46" height="46" fill="white">
            <use xlink:href="#path-1"></use>
        </mask>
    </defs>
    <g id="Page-1" stroke="none" stroke-width="1" fill="none" fill-rule="evenodd">
        <g id="strategy" transform="translate(-1.000000, -1.000000)">
            <g transform="translate(1.000000, 1.000000)">
                <path d="M23,7 C24.1041722,7 25.0416628,7.39582937 25.8125,8.1875 C26.6041706,8.95833719 27,9.89582781 27,11 L27,11.6875 C27.333335,11.8125006 27.7291644,11.9791656 28.1875,12.1875 L28.65625,11.6875 C29.4479206,10.9166628 30.3958278,10.53125 31.5,10.53125 C32.5833387,10.53125 33.5208294,10.9166628 34.3125,11.6875 C35.1041706,12.4791706 35.5,13.4270778 35.5,14.53125 C35.5,15.6354222 35.1041706,16.5729128 34.3125,17.34375 L33.84375,17.84375 C34.0520844,18.3020856 34.2083328,18.6874984 34.3125,19 L35,19 C36.1041722,19 37.0416628,19.3958294 37.8125,20.1875 C38.6041706,20.9583372 39,21.8958278 39,23 C39,24.1041722 38.6145872,25.0520794 37.84375,25.84375 C37.0520794,26.6145872 36.1041722,27 35,27 L34.3125,27 C34.2083328,27.333335 34.0520844,27.7291644 33.84375,28.1875 L34.3125,28.65625 C35.1041706,29.4479206 35.5,30.3958278 35.5,31.5 C35.5,32.6041722 35.1041706,33.5416628 34.3125,34.3125 C33.5208294,35.1041706 32.5833387,35.5 31.5,35.5 C30.3958278,35.5 29.4479206,35.1041706 28.65625,34.3125 L28.1875,33.84375 C27.7291644,34.0520844 27.333335,34.2083328 27,34.3125 L27,35 C27,36.1041722 26.6145872,37.0520794 25.84375,37.84375 C25.0520794,38.6145872 24.1041722,39 23,39 C21.8958278,39 20.9583372,38.6145872 20.1875,37.84375 C19.3958294,37.0520794 19,36.1041722 19,35 L19,34.3125 C18.666665,34.2083328 18.2708356,34.0520844 17.8125,33.84375 L17.34375,34.3125 C16.5520794,35.1041706 15.6145887,35.5 14.53125,35.5 C13.4270778,35.5 12.4791706,35.1041706 11.6875,34.3125 C10.9166628,33.5416628 10.53125,32.6041722 10.53125,31.5 C10.53125,30.3958278 10.9166628,29.4479206 11.6875,28.65625 L12.15625,28.1875 C11.9479156,27.7291644 11.7916672,27.333335 11.6875,27 L11,27 C9.89582781,27 8.94792063,26.6145872 8.15625,25.84375 C7.38541281,25.0520794 7,24.1041722 7,23 C7,21.8958278 7.38541281,20.9583372 8.15625,20.1875 C8.94792063,19.3958294 9.89582781,19 11,19 L11.6875,19 C11.7916672,18.6874984 11.9479156,18.3020856 12.15625,17.84375 L11.6875,17.34375 C10.9166628,16.5729128 10.53125,15.6354222 10.53125,14.53125 C10.53125,13.4270778 10.9166628,12.4791706 11.6875,11.6875 C12.4791706,10.9166628 13.4270778,10.53125 14.53125,10.53125 C15.6145887,10.53125 16.5520794,10.9166628 17.34375,11.6875 L17.8125,12.1875 C18.2708356,11.9791656 18.666665,11.8125006 19,11.6875 L19,11 C19,9.89582781 19.3854128,8.95833719 20.15625,8.1875 C20.9479206,7.39582937 21.8958278,7 23,7 L23,7 Z M23,9.6875 C22.6249981,9.6875 22.3125013,9.81249875 22.0625,10.0625 C21.7916653,10.3333347 21.65625,10.6458316 21.65625,11 L21.65625,13.78125 C20.1145756,13.9895844 18.6979231,14.5729119 17.40625,15.53125 L15.46875,13.59375 C15.1979153,13.3229153 14.8854184,13.1875 14.53125,13.1875 C14.1562481,13.1875 13.8437513,13.3124987 13.59375,13.5625 C13.3229153,13.8333347 13.1875,14.1562481 13.1875,14.53125 C13.1875,14.9062519 13.3124987,15.2187487 13.5625,15.46875 L15.53125,17.40625 C14.5729119,18.6979231 13.9791678,20.1249922 13.75,21.6875 L11,21.6875 C10.6249981,21.6875 10.3125013,21.8124987 10.0625,22.0625 C9.79166531,22.3333347 9.65625,22.6458316 9.65625,23 C9.65625,23.3750019 9.79166531,23.6874987 10.0625,23.9375 C10.3125013,24.2083347 10.6249981,24.34375 11,24.34375 L13.75,24.34375 C13.9791678,25.9062578 14.5729119,27.3229103 15.53125,28.59375 L13.5625,30.5625 C13.3124987,30.8125013 13.1875,31.1249981 13.1875,31.5 C13.1875,31.8750019 13.3229153,32.1874988 13.59375,32.4375 C13.8437513,32.7083347 14.1562481,32.84375 14.53125,32.84375 C14.8854184,32.84375 15.1979153,32.7083347 15.46875,32.4375 L17.40625,30.5 C18.6979231,31.4375047 20.1145756,32.0208322 21.65625,32.25 L21.65625,35 C21.65625,35.3750019 21.7916653,35.6874988 22.0625,35.9375 C22.3125013,36.2083347 22.6249981,36.34375 23,36.34375 C23.3750019,36.34375 23.6874988,36.2083347 23.9375,35.9375 C24.2083347,35.6874988 24.34375,35.3750019 24.34375,35 L24.34375,32.25 C25.8854244,32.0208322 27.3020769,31.4375047 28.59375,30.5 L30.53125,32.4375 C30.8020847,32.7083347 31.1249981,32.84375 31.5,32.84375 C31.8541684,32.84375 32.1666653,32.7083347 32.4375,32.4375 C32.6875012,32.1874988 32.8125,31.8750019 32.8125,31.5 C32.8125,31.1249981 32.6875012,30.8125013 32.4375,30.5625 L30.46875,28.59375 C31.4270881,27.3229103 32.0208322,25.9062578 32.25,24.34375 L35,24.34375 C35.3750019,24.34375 35.6874988,24.2083347 35.9375,23.9375 C36.2083347,23.6874987 36.34375,23.3750019 36.34375,23 C36.34375,22.6458316 36.2083347,22.3333347 35.9375,22.0625 C35.6874988,21.8124987 35.3750019,21.6875 35,21.6875 L32.25,21.6875 C32.0208322,20.1249922 31.4270881,18.6979231 30.46875,17.40625 L32.4375,15.46875 C32.6875012,15.1979153 32.8125,14.8854184 32.8125,14.53125 C32.8125,14.1562481 32.6875012,13.8333347 32.4375,13.5625 C32.1666653,13.3124987 31.8541684,13.1875 31.5,13.1875 C31.1249981,13.1875 30.8020847,13.3229153 30.53125,13.59375 L28.59375,15.53125 C27.3020769,14.5729119 25.8854244,13.9895844 24.34375,13.78125 L24.34375,11 C24.34375,10.6458316 24.2083347,10.3333347 23.9375,10.0625 C23.6874988,9.81249875 23.3750019,9.6875 23,9.6875 L23,9.6875 Z M23,17.6875 C24.4791741,17.6875 25.7395781,18.2083281 26.78125,19.25 C27.8229219,20.2916719 28.34375,21.5416594 28.34375,23 C28.34375,24.4791741 27.8229219,25.7395781 26.78125,26.78125 C25.7395781,27.8229219 24.4791741,28.34375 23,28.34375 C21.5208259,28.34375 20.2604219,27.8229219 19.21875,26.78125 C18.1770781,25.7395781 17.65625,24.4791741 17.65625,23 C17.65625,21.5416594 18.1770781,20.2916719 19.21875,19.25 C20.2604219,18.2083281 21.5208259,17.6875 23,17.6875 L23,17.6875 Z M23,20.34375 C22.2708297,20.34375 21.6458359,20.6041641 21.125,21.125 C20.6041641,21.6458359 20.34375,22.2708297 20.34375,23 C20.34375,23.7500038 20.6041641,24.3854141 21.125,24.90625 C21.6458359,25.4270859 22.2708297,25.6875 23,25.6875 C23.7291703,25.6875 24.3541641,25.4270859 24.875,24.90625 C25.3958359,24.3854141 25.65625,23.7500038 25.65625,23 C25.65625,22.2708297 25.3958359,21.6458359 24.875,21.125 C24.3541641,20.6041641 23.7291703,20.34375 23,20.34375 L23,20.34375 Z" fill="#00002D"></path>
                <use id="Oval-Copy" stroke="#00002D" mask="url(#mask-2)" stroke-width="6" xlink:href="#path-1"></use>
            </g>
        </g>
    </g>
</svg>